<svg aria-hidden="true" style="position: absolute; width: 0; height: 0; overflow: hidden;" version="1.1" xmlns="http://www.w3.org/2000/svg" xmlns:xlink="http://www.w3.org/1999/xlink">
<defs>
<symbol id="icon-bookmark" viewBox="0 0 20 20">
<title>bookmark</title>
<path d="M14 2v17l-4-4-4 4v-17c0-0.553 0.585-1.020 1-1h6c0.689-0.020 1 0.447 1 1z"></path>
</symbol>
<symbol id="icon-chevron-down" viewBox="0 0 20 20">
<title>chevron-down</title>
<path d="M4.516 7.548c0.436-0.446 1.043-0.481 1.576 0l3.908 3.747 3.908-3.747c0.533-0.481 1.141-0.446 1.574 0 0.436 0.445 0.408 1.197 0 1.615-0.406 0.418-4.695 4.502-4.695 4.502-0.217 0.223-0.502 0.335-0.787 0.335s-0.57-0.112-0.789-0.335c0 0-4.287-4.084-4.695-4.502s-0.436-1.17 0-1.615z"></path>
</symbol>
<symbol id="icon-chevron-left" viewBox="0 0 20 20">
<title>chevron-left</title>
<path d="M12.452 4.516c0.446 0.436 0.481 1.043 0 1.576l-3.747 3.908 3.747 3.908c0.481 0.533 0.446 1.141 0 1.574-0.445 0.436-1.197 0.408-1.615 0-0.418-0.406-4.502-4.695-4.502-4.695-0.223-0.217-0.335-0.502-0.335-0.787s0.112-0.57 0.335-0.789c0 0 4.084-4.287 4.502-4.695s1.17-0.436 1.615 0z"></path>
</symbol>
<symbol id="icon-chevron-right" viewBox="0 0 20 20">
<title>chevron-right</title>
<path d="M9.163 4.516c0.418 0.408 4.502 4.695 4.502 4.695 0.223 0.219 0.335 0.504 0.335 0.789s-0.112 0.57-0.335 0.787c0 0-4.084 4.289-4.502 4.695-0.418 0.408-1.17 0.436-1.615 0-0.446-0.434-0.481-1.041 0-1.574l3.747-3.908-3.747-3.908c-0.481-0.533-0.446-1.141 0-1.576s1.197-0.409 1.615 0z"></path>
</symbol>
<symbol id="icon-download" viewBox="0 0 20 20">
<title>download</title>
<path d="M15 7h-3v-6h-4v6h-3l5 5 5-5zM19.338 13.532c-0.21-0.224-1.611-1.723-2.011-2.114-0.265-0.259-0.644-0.418-1.042-0.418h-1.757l3.064 2.994h-3.544c-0.102 0-0.194 0.052-0.24 0.133l-0.816 1.873h-5.984l-0.816-1.873c-0.046-0.081-0.139-0.133-0.24-0.133h-3.544l3.063-2.994h-1.756c-0.397 0-0.776 0.159-1.042 0.418-0.4 0.392-1.801 1.891-2.011 2.114-0.489 0.521-0.758 0.936-0.63 1.449l0.561 3.074c0.128 0.514 0.691 0.936 1.252 0.936h16.312c0.561 0 1.124-0.422 1.252-0.936l0.561-3.074c0.126-0.513-0.142-0.928-0.632-1.449z"></path>
</symbol>
<symbol id="icon-install" viewBox="0 0 20 20">
<title>install</title>
<path d="M19.059 10.898l-3.171-7.927c-0.234-0.587-0.802-0.971-1.434-0.971h-2.434l0.38 4.065h2.7l-5.1 4.228-5.1-4.228h2.7l0.38-4.065h-2.434c-0.632 0-1.2 0.384-1.434 0.971l-3.171 7.927c-0.288 0.721-0.373 1.507-0.246 2.272l0.59 3.539c0.124 0.745 0.768 1.291 1.523 1.291h14.383c0.755 0 1.399-0.546 1.523-1.291l0.59-3.539c0.129-0.765 0.044-1.551-0.245-2.272zM16.959 15.245c-0.072 0.436-0.449 0.755-0.891 0.755h-12.136c-0.442 0-0.819-0.319-0.891-0.755l-0.365-2.193c-0.093-0.551 0.332-1.052 0.891-1.052h12.867c0.558 0 0.983 0.501 0.891 1.052l-0.366 2.193z"></path>
</symbol>
<symbol id="icon-open-book" viewBox="0 0 20 20">
<title>open-book</title>
<path d="M10.595 5.196l0.446 1.371c0.369-0.316 0.835-0.599 1.441-0.795 0.59-0.192 1.111-0.3 1.582-0.362l-0.43-1.323c-0.476 0.069-1.001 0.18-1.58 0.368s-1.055 0.45-1.459 0.741zM11.522 8.051l0.446 1.371c0.369-0.316 0.835-0.599 1.441-0.795 0.59-0.192 1.111-0.3 1.582-0.362l-0.43-1.323c-0.476 0.069-1.001 0.18-1.58 0.368-0.578 0.187-1.054 0.449-1.459 0.741zM12.45 10.905l0.446 1.371c0.369-0.316 0.835-0.599 1.441-0.795 0.59-0.192 1.111-0.3 1.582-0.362l-0.43-1.323c-0.476 0.069-1.001 0.18-1.58 0.368-0.579 0.187-1.055 0.45-1.459 0.741zM5.388 13.077l0.43 1.323c0.417-0.226 0.902-0.445 1.492-0.636 0.606-0.197 1.149-0.242 1.633-0.203l-0.446-1.371c-0.499 0.002-1.038 0.070-1.615 0.257-0.579 0.188-1.069 0.406-1.494 0.63zM3.533 7.368l0.43 1.323c0.417-0.226 0.902-0.444 1.492-0.636 0.606-0.197 1.149-0.242 1.633-0.203l-0.445-1.372c-0.499 0.003-1.038 0.070-1.616 0.258-0.579 0.188-1.069 0.406-1.494 0.63zM4.46 10.223l0.43 1.323c0.417-0.226 0.902-0.445 1.492-0.636 0.606-0.197 1.149-0.242 1.633-0.203l-0.445-1.372c-0.499 0.002-1.038 0.070-1.615 0.257-0.579 0.188-1.070 0.407-1.495 0.631zM11.064 1.41c-1.723 0.56-2.623 1.752-3.053 2.559-0.822-0.4-2.25-0.835-3.973-0.275-2.523 0.82-3.969 2.627-3.969 2.627l4.095 12.587c0.126 0.387 0.646 0.477 0.878 0.143 0.499-0.719 1.46-1.658 3.257-2.242 1.718-0.558 2.969 0.054 3.655 0.578 0.272 0.208 0.662 0.060 0.762-0.268 0.252-0.827 0.907-2.040 2.61-2.593 1.799-0.585 3.129-0.389 3.956-0.1 0.385 0.134 0.75-0.242 0.625-0.629l-4.088-12.594c0 0-2.232-0.612-4.755 0.207zM10.951 15.256c-0.819-0.244-1.901-0.358-3.141 0.044-1.251 0.406-2.127 0.949-2.699 1.404l-3.245-9.982c0.358-0.358 1.187-1.042 2.662-1.521 1.389-0.451 2.528-0.065 3.279 0.378l3.144 9.677zM17.845 12.567c-0.731-0.032-1.759 0.044-3.010 0.451-1.24 0.403-2.048 1.132-2.567 1.81l-3.144-9.677c0.346-0.8 1.040-1.782 2.43-2.233 1.474-0.479 2.547-0.413 3.047-0.334l3.244 9.983z"></path>
</symbol>
<symbol id="icon-upload-to-cloud" viewBox="0 0 20 20">
<title>upload-to-cloud</title>
<path d="M15.213 6.639c-0.276 0-0.546 0.025-0.809 0.068-0.656-2.145-2.688-3.707-5.095-3.707-2.939 0-5.32 2.328-5.32 5.199 0 0.256 0.020 0.508 0.057 0.756-0.141-0.017-0.283-0.027-0.429-0.027-1.998 0-3.617 1.582-3.617 3.535s1.619 3.537 3.617 3.537h4.383v-4h-2.5l4.5-5 4.5 5h-2.5v4h3.213c2.643 0 4.787-2.096 4.787-4.68 0-2.586-2.144-4.681-4.787-4.681z"></path>
</symbol>
<symbol id="icon-upload" viewBox="0 0 20 20">
<title>upload</title>
<path d="M8 12h4v-6h3l-5-5-5 5h3v6zM19.338 13.532c-0.21-0.224-1.611-1.723-2.011-2.114-0.265-0.259-0.644-0.418-1.042-0.418h-1.757l3.064 2.994h-3.544c-0.102 0-0.194 0.052-0.24 0.133l-0.816 1.873h-5.984l-0.816-1.873c-0.046-0.081-0.139-0.133-0.24-0.133h-3.544l3.063-2.994h-1.756c-0.397 0-0.776 0.159-1.042 0.418-0.4 0.392-1.801 1.891-2.011 2.114-0.489 0.521-0.758 0.936-0.63 1.449l0.561 3.074c0.128 0.514 0.691 0.936 1.252 0.936h16.312c0.561 0 1.124-0.422 1.252-0.936l0.561-3.074c0.126-0.513-0.142-0.928-0.632-1.449z"></path>
</symbol>
<symbol id="icon-aircraft-take-off" viewBox="0 0 20 20">
<title>aircraft-take-off</title>
<path d="M19.87 6.453c0.119 0.257 0.127 1.29-4.884 3.642l-4.913 2.306c-1.71 0.803-4.191 1.859-5.285 2.151-0.766 0.204-1.497-0.316-1.497-0.316s-2.206-1.975-2.792-2.419c-0.585-0.444-0.535-0.67 0.215-0.91 0.467-0.149 3.13 0.493 4.265 0.78 1.339-0.8 2.562-1.486 3.141-1.798-1.396-1.033-4.008-2.962-4.841-3.55-0.799-0.565 0.010-0.768 0.010-0.768 0.368-0.099 1.162-0.228 1.562-0.144 2.721 0.569 7.263 2.071 7.611 2.186 0.832-0.436 2.128-1.092 2.922-1.465 2.075-0.974 4.327-0.037 4.486 0.305z"></path>
</symbol>
<symbol id="icon-book" viewBox="0 0 20 20">
<title>book</title>
<path d="M17 5.95v10.351c0 0.522-0.452 0.771-1 1.16-0.44 0.313-1-0.075-1-0.587 0 0 0-9.905 0-10.114 0-0.211-0.074-0.412-0.314-0.535s-7.738-4.065-7.738-4.065c-0.121-0.045-0.649-0.378-1.353-0.016-0.669 0.344-1.033 0.718-1.126 0.894l8.18 4.482c0.217 0.114 0.351 0.29 0.351 0.516v10.802c0 0.23-0.142 0.476-0.369 0.585-0.104 0.052-0.219 0.077-0.333 0.077-0.135 0-0.271-0.033-0.386-0.104-0.215-0.131-7.774-4.766-8.273-5.067-0.24-0.144-0.521-0.439-0.527-0.658l-0.112-10.286c0-0.198-0.023-0.547 0.289-1.032 0.697-1.084 3.129-2.317 4.36-1.678l8.999 4.555c0.217 0.112 0.352 0.336 0.352 0.72z"></path>
</symbol>
<symbol id="icon-chat" viewBox="0 0 20 20">
<title>chat</title>
<path d="M5.8 12.2v-6.2h-3.8c-1.1 0-2 0.9-2 2v6c0 1.1 0.9 2 2 2h1v3l3-3h5c1.1 0 2-0.9 2-2v-1.82c-0.064 0.014-0.132 0.021-0.2 0.021l-7-0.001zM18 1h-9c-1.1 0-2 0.9-2 2v8h7l3 3v-3h1c1.1 0 2-0.899 2-2v-6c0-1.1-0.9-2-2-2z"></path>
</symbol>
<symbol id="icon-check" viewBox="0 0 20 20">
<title>check</title>
<path d="M8.294 16.998c-0.435 0-0.847-0.203-1.111-0.553l-3.573-4.721c-0.465-0.613-0.344-1.486 0.27-1.951 0.615-0.467 1.488-0.344 1.953 0.27l2.351 3.104 5.911-9.492c0.407-0.652 1.267-0.852 1.921-0.445s0.854 1.266 0.446 1.92l-6.984 11.21c-0.242 0.391-0.661 0.635-1.12 0.656-0.022 0.002-0.042 0.002-0.064 0.002z"></path>
</symbol>
<symbol id="icon-circle-with-cross" viewBox="0 0 20 20">
<title>circle-with-cross</title>
<path d="M10 1.6c-4.639 0-8.4 3.761-8.4 8.4s3.761 8.4 8.4 8.4 8.4-3.761 8.4-8.4c0-4.639-3.761-8.4-8.4-8.4zM14.789 13.061l-1.729 1.729-3.060-3.061-3.061 3.060-1.729-1.729 3.062-3.060-3.061-3.061 1.729-1.728 3.060 3.060 3.061-3.061 1.729 1.729-3.062 3.061 3.061 3.061z"></path>
</symbol>
<symbol id="icon-circle-with-minus" viewBox="0 0 20 20">
<title>circle-with-minus</title>
<path d="M10 1.6c-4.639 0-8.4 3.761-8.4 8.4s3.761 8.4 8.4 8.4 8.4-3.761 8.4-8.4c0-4.639-3.761-8.4-8.4-8.4zM15 11h-10v-2h10v2z"></path>
</symbol>
<symbol id="icon-circle-with-plus" viewBox="0 0 20 20">
<title>circle-with-plus</title>
<path d="M10 1.6c-4.639 0-8.4 3.761-8.4 8.4s3.761 8.4 8.4 8.4 8.4-3.761 8.4-8.4c0-4.639-3.761-8.4-8.4-8.4zM15 11h-4v4h-2v-4h-4v-2h4v-4h2v4h4v2z"></path>
</symbol>
<symbol id="icon-circle" viewBox="0 0 20 20">
<title>circle</title>
<path d="M10 0.4c-5.302 0-9.6 4.298-9.6 9.6s4.298 9.6 9.6 9.6c5.301 0 9.6-4.298 9.6-9.601 0-5.301-4.299-9.599-9.6-9.599zM10 17.599c-4.197 0-7.6-3.402-7.6-7.6s3.402-7.599 7.6-7.599c4.197 0 7.601 3.402 7.601 7.6s-3.404 7.599-7.601 7.599z"></path>
</symbol>
<symbol id="icon-cog" viewBox="0 0 20 20">
<title>cog</title>
<path d="M16.783 10c0-1.049 0.646-1.875 1.617-2.443-0.176-0.584-0.407-1.145-0.692-1.672-1.089 0.285-1.97-0.141-2.711-0.883-0.741-0.74-0.968-1.621-0.683-2.711-0.527-0.285-1.088-0.518-1.672-0.691-0.568 0.97-1.595 1.615-2.642 1.615-1.048 0-2.074-0.645-2.643-1.615-0.585 0.173-1.144 0.406-1.671 0.691 0.285 1.090 0.059 1.971-0.684 2.711-0.74 0.742-1.621 1.168-2.711 0.883-0.285 0.527-0.517 1.088-0.691 1.672 0.97 0.568 1.615 1.394 1.615 2.443 0 1.047-0.645 2.074-1.615 2.643 0.175 0.584 0.406 1.144 0.691 1.672 1.090-0.285 1.971-0.059 2.711 0.682s0.969 1.623 0.684 2.711c0.527 0.285 1.087 0.518 1.672 0.693 0.568-0.973 1.595-1.617 2.643-1.617 1.047 0 2.074 0.645 2.643 1.617 0.584-0.176 1.144-0.408 1.672-0.693-0.285-1.088-0.059-1.969 0.683-2.711 0.741-0.74 1.622-1.166 2.711-0.883 0.285-0.527 0.517-1.086 0.692-1.672-0.973-0.569-1.619-1.395-1.619-2.442zM10 13.652c-2.018 0-3.653-1.635-3.653-3.652 0-2.018 1.636-3.654 3.653-3.654s3.652 1.637 3.652 3.654c0 2.018-1.634 3.652-3.652 3.652z"></path>
</symbol>
<symbol id="icon-credit-card" viewBox="0 0 20 20">
<title>credit-card</title>
<path d="M18 3h-16c-1.101 0-2 0.9-2 2v10c0 1.1 0.899 2 2 2h16c1.1 0 2-0.9 2-2v-10c0-1.1-0.9-2-2-2zM18 15h-16v-6h16v6zM18 6h-16v-1h16v1zM4 11.1v0.6h0.6v-0.6h-0.6zM7.6 12.299v0.601h1.2v-0.601h0.6v-0.6h0.6v-0.6h-1.2v0.6h-0.601v0.6h-0.599zM10 12.9v-0.601h-0.601v0.601h0.601zM7 12.9v-0.601h-1.2v0.601h1.2zM7.6 11.699h0.6v-0.6h-1.2v1.199h0.6v-0.599zM5.199 12.299h0.601v-0.6h0.6v-0.6h-1.2v0.6h-0.6v0.6h-0.6v0.601h1.199v-0.601z"></path>
</symbol>
<symbol id="icon-cross" viewBox="0 0 20 20">
<title>cross</title>
<path d="M14.348 14.849c-0.469 0.469-1.229 0.469-1.697 0l-2.651-3.030-2.651 3.029c-0.469 0.469-1.229 0.469-1.697 0-0.469-0.469-0.469-1.229 0-1.697l2.758-3.15-2.759-3.152c-0.469-0.469-0.469-1.228 0-1.697s1.228-0.469 1.697 0l2.652 3.031 2.651-3.031c0.469-0.469 1.228-0.469 1.697 0s0.469 1.229 0 1.697l-2.758 3.152 2.758 3.15c0.469 0.469 0.469 1.229 0 1.698z"></path>
</symbol>
<symbol id="icon-drive" viewBox="0 0 20 20">
<title>drive</title>
<path d="M19.059 10.898l-3.171-7.927c-0.234-0.587-0.802-0.971-1.434-0.971h-8.908c-0.632 0-1.2 0.384-1.434 0.971l-3.171 7.927c-0.288 0.721-0.373 1.507-0.246 2.272l0.59 3.539c0.124 0.745 0.768 1.291 1.523 1.291h14.383c0.755 0 1.399-0.546 1.523-1.291l0.59-3.539c0.129-0.765 0.044-1.551-0.245-2.272zM16.959 15.245c-0.072 0.436-0.449 0.755-0.891 0.755h-12.136c-0.442 0-0.819-0.319-0.891-0.755l-0.365-2.193c-0.093-0.551 0.332-1.052 0.891-1.052h12.867c0.558 0 0.983 0.501 0.891 1.052l-0.366 2.193z"></path>
</symbol>
<symbol id="icon-edit" viewBox="0 0 20 20">
<title>edit</title>
<path d="M17.561 2.439c-1.442-1.443-2.525-1.227-2.525-1.227l-12.826 12.825-1.010 4.762 4.763-1.010 12.826-12.823c-0.001 0 0.216-1.083-1.228-2.527zM5.68 17.217l-1.624 0.35c-0.156-0.293-0.345-0.586-0.69-0.932s-0.639-0.533-0.932-0.691l0.35-1.623 0.47-0.469c0 0 0.883 0.018 1.881 1.016 0.997 0.996 1.016 1.881 1.016 1.881l-0.471 0.468z"></path>
</symbol>
<symbol id="icon-email" viewBox="0 0 20 20">
<title>email</title>
<path d="M14.608 12.172c0 0.84 0.239 1.175 0.864 1.175 1.393 0 2.28-1.775 2.28-4.727 0-4.512-3.288-6.672-7.393-6.672-4.223 0-8.064 2.832-8.064 8.184 0 5.112 3.36 7.896 8.52 7.896 1.752 0 2.928-0.192 4.727-0.792l0.386 1.607c-1.776 0.577-3.674 0.744-5.137 0.744-6.768 0-10.393-3.72-10.393-9.456 0-5.784 4.201-9.72 9.985-9.72 6.024 0 9.215 3.6 9.215 8.016 0 3.744-1.175 6.6-4.871 6.6-1.681 0-2.784-0.672-2.928-2.161-0.432 1.656-1.584 2.161-3.145 2.161-2.088 0-3.84-1.609-3.84-4.848 0-3.264 1.537-5.28 4.297-5.28 1.464 0 2.376 0.576 2.782 1.488l0.697-1.272h2.016v7.057h0.002zM11.657 9.004c0-1.319-0.985-1.872-1.801-1.872-0.888 0-1.871 0.719-1.871 2.832 0 1.68 0.744 2.616 1.871 2.616 0.792 0 1.801-0.504 1.801-1.896v-1.68z"></path>
</symbol>
<symbol id="icon-eye" viewBox="0 0 20 20">
<title>eye</title>
<path d="M10 4.4c-6.561 0-10 4.832-10 5.6 0 0.766 3.439 5.6 10 5.6s10-4.834 10-5.6c0-0.768-3.44-5.6-10-5.6zM10 14.307c-2.455 0-4.445-1.928-4.445-4.307s1.99-4.309 4.445-4.309c2.455 0 4.444 1.93 4.444 4.309s-1.989 4.307-4.444 4.307zM10 10c-0.407-0.447 0.663-2.154 0-2.154-1.228 0-2.223 0.965-2.223 2.154s0.995 2.154 2.223 2.154c1.227 0 2.223-0.965 2.223-2.154 0-0.547-1.877 0.379-2.223 0z"></path>
</symbol>
<symbol id="icon-flag" viewBox="0 0 20 20">
<title>flag</title>
<path d="M18.926 5.584c-9.339 13.568-6.142-0.26-14.037 6.357l1.795 7.059h-2.019l-3.665-14.41 1.85-0.664c8.849-6.471 4.228 5.82 15.637 1.254 0.364-0.147 0.655 0.090 0.439 0.404z"></path>
</symbol>
<symbol id="icon-graduation-cap" viewBox="0 0 20 20">
<title>graduation-cap</title>
<path d="M3.302 12.238c0.464 1.879 1.054 2.701 3.022 3.562 1.969 0.86 2.904 1.8 3.676 1.8s1.648-0.822 3.616-1.684c1.969-0.861 1.443-1.123 1.907-3.002l-5.523 2.686-6.698-3.362zM19.511 7.336l-8.325-4.662c-0.652-0.365-1.72-0.365-2.372 0l-8.326 4.662c-0.652 0.365-0.652 0.963 0 1.328l8.325 4.662c0.652 0.365 1.72 0.365 2.372 0l5.382-3.014-5.836-1.367c-0.225 0.055-0.472 0.086-0.731 0.086-1.052 0-1.904-0.506-1.904-1.131 0-0.627 0.853-1.133 1.904-1.133 0.816 0 1.51 0.307 1.78 0.734l6.182 2.029 1.549-0.867c0.651-0.364 0.651-0.962 0-1.327zM16.967 16.17c-0.065 0.385 1.283 1.018 1.411-0.107 0.579-5.072-0.416-6.531-0.416-6.531l-1.395 0.781c0-0.001 1.183 1.125 0.4 5.857z"></path>
</symbol>
<symbol id="icon-grid" viewBox="0 0 20 20">
<title>grid</title>
<path d="M8 4h-3c-0.553 0-1 0.447-1 1v3c0 0.552 0.447 1 1 1h3c0.553 0 1-0.448 1-1v-3c0-0.552-0.447-1-1-1zM15 4h-3c-0.553 0-1 0.447-1 1v3c0 0.552 0.447 1 1 1h3c0.553 0 1-0.448 1-1v-3c0-0.552-0.447-1-1-1zM8 11h-3c-0.553 0-1 0.447-1 1v3c0 0.552 0.447 1 1 1h3c0.553 0 1-0.448 1-1v-3c0-0.552-0.447-1-1-1zM15 11h-3c-0.553 0-1 0.447-1 1v3c0 0.552 0.447 1 1 1h3c0.553 0 1-0.448 1-1v-3c0-0.552-0.447-1-1-1z"></path>
</symbol>
<symbol id="icon-hair-cross" viewBox="0 0 20 20">
<title>hair-cross</title>
<path d="M10 0.4c-5.303 0-9.601 4.298-9.601 9.6 0 5.303 4.298 9.601 9.601 9.601 5.301 0 9.6-4.298 9.6-9.601s-4.299-9.6-9.6-9.6zM11 17.525v-4.525h-2v4.525c-3.396-0.446-6.080-3.129-6.527-6.525h4.527v-2h-4.527c0.447-3.396 3.131-6.079 6.527-6.525v4.525h2v-4.525c3.394 0.447 6.078 3.13 6.525 6.525h-4.525v2h4.525c-0.447 3.394-3.131 6.078-6.525 6.525z"></path>
</symbol>
<symbol id="icon-heart-outlined" viewBox="0 0 20 20">
<title>heart-outlined</title>
<path d="M17.19 4.156c-1.672-1.535-4.383-1.535-6.055 0l-1.135 1.041-1.136-1.041c-1.672-1.535-4.382-1.535-6.054 0-1.881 1.726-1.881 4.519 0 6.245l7.19 6.599 7.19-6.599c1.88-1.726 1.88-4.52 0-6.245zM16.124 9.375l-6.124 5.715-6.125-5.715c-0.617-0.567-0.856-1.307-0.856-2.094s0.138-1.433 0.756-1.999c0.545-0.501 1.278-0.777 2.063-0.777s1.517 0.476 2.062 0.978l2.1 1.825 2.099-1.826c0.546-0.502 1.278-0.978 2.063-0.978s1.518 0.276 2.063 0.777c0.618 0.566 0.755 1.212 0.755 1.999s-0.238 1.528-0.856 2.095z"></path>
</symbol>
<symbol id="icon-heart" viewBox="0 0 20 20">
<title>heart</title>
<path d="M17.19 4.155c-1.672-1.534-4.383-1.534-6.055 0l-1.135 1.042-1.136-1.042c-1.672-1.534-4.382-1.534-6.054 0-1.881 1.727-1.881 4.52 0 6.246l7.19 6.599 7.19-6.599c1.88-1.726 1.88-4.52 0-6.246z"></path>
</symbol>
<symbol id="icon-home" viewBox="0 0 20 20">
<title>home</title>
<path d="M18.672 11h-1.672v6c0 0.445-0.194 1-1 1h-4v-6h-4v6h-4c-0.806 0-1-0.555-1-1v-6h-1.672c-0.598 0-0.47-0.324-0.060-0.748l8.024-8.032c0.195-0.202 0.451-0.302 0.708-0.312 0.257 0.010 0.513 0.109 0.708 0.312l8.023 8.031c0.411 0.425 0.539 0.749-0.059 0.749z"></path>
</symbol>
<symbol id="icon-hour-glass" viewBox="0 0 20 20">
<title>hour-glass</title>
<path d="M15.6 4.576c0-2.139 0-2.348 0-2.348 0-0.789-2.508-2.228-5.6-2.228-3.093 0-5.6 1.439-5.6 2.228 0 0 0 0.209 0 2.348 0 2.141 3.877 3.908 3.877 5.424 0 1.514-3.877 3.281-3.877 5.422s0 2.35 0 2.35c0 0.788 2.507 2.228 5.6 2.228 3.092 0 5.6-1.44 5.6-2.229 0 0 0-0.209 0-2.35s-3.877-3.908-3.877-5.422c0-1.515 3.877-3.282 3.877-5.423zM5.941 2.328c0.696-0.439 2-1.082 4.114-1.082s4.006 1.082 4.006 1.082c0.142 0.086 0.698 0.383 0.317 0.609-0.838 0.497-2.478 1.020-4.378 1.020s-3.484-0.576-4.324-1.074c-0.381-0.225 0.265-0.555 0.265-0.555zM10.501 10c0 1.193 0.996 1.961 2.051 2.986 0.771 0.748 1.826 1.773 1.826 2.435v1.328c-0.97-0.483-3.872-0.955-3.872-2.504 0-0.783-1.013-0.783-1.013 0 0 1.549-2.902 2.021-3.872 2.504v-1.328c0-0.662 1.056-1.688 1.826-2.435 1.055-1.025 2.051-1.793 2.051-2.986s-0.996-1.961-2.051-2.986c-0.771-0.75-1.826-1.775-1.826-2.438l-0.046-0.998c1.026 0.553 2.652 1.078 4.425 1.078 1.772 0 3.406-0.525 4.433-1.078l-0.055 0.998c0 0.662-1.056 1.688-1.826 2.438-1.054 1.025-2.051 1.793-2.051 2.986z"></path>
</symbol>
<symbol id="icon-info" viewBox="0 0 20 20">
<title>info</title>
<path d="M12.432 0c1.34 0 2.010 0.912 2.010 1.957 0 1.305-1.164 2.512-2.679 2.512-1.269 0-2.009-0.75-1.974-1.99 0-1.043 0.881-2.479 2.643-2.479zM8.309 20c-1.058 0-1.833-0.652-1.093-3.524l1.214-5.092c0.211-0.814 0.246-1.141 0-1.141-0.317 0-1.689 0.562-2.502 1.117l-0.528-0.88c2.572-2.186 5.531-3.467 6.801-3.467 1.057 0 1.233 1.273 0.705 3.23l-1.391 5.352c-0.246 0.945-0.141 1.271 0.106 1.271 0.317 0 1.357-0.392 2.379-1.207l0.6 0.814c-2.502 2.547-5.235 3.527-6.291 3.527z"></path>
</symbol>
<symbol id="icon-key" viewBox="0 0 20 20">
<title>key</title>
<path d="M17.691 4.725c-0.503-2.977-3.22-4.967-6.069-4.441s-5.256 2.816-4.753 5.795c0.107 0.641 0.408 1.644 0.763 2.365l-5.175 7.723c-0.191 0.285-0.299 0.799-0.242 1.141l0.333 1.971c0.058 0.342 0.372 0.572 0.7 0.514l1.516-0.281c0.328-0.059 0.744-0.348 0.924-0.639l2.047-3.311 0.018-0.022 1.386-0.256 2.39-3.879c0.785 0.139 1.912 0.092 2.578-0.031 2.848-0.526 4.087-3.67 3.584-6.649zM15.166 6.252c-0.784 1.17-1.584 0.346-2.703-0.475-1.119-0.818-2.135-1.322-1.352-2.492s2.326-1.455 3.447-0.635c1.12 0.819 1.391 2.432 0.608 3.602z"></path>
</symbol>
<symbol id="icon-list" viewBox="0 0 20 20">
<title>list</title>
<path d="M14.4 9h-5.8c-0.552 0-0.6 0.447-0.6 1s0.048 1 0.6 1h5.8c0.552 0 0.6-0.447 0.6-1s-0.048-1-0.6-1zM16.4 14h-7.8c-0.552 0-0.6 0.447-0.6 1s0.048 1 0.6 1h7.8c0.552 0 0.6-0.447 0.6-1s-0.048-1-0.6-1zM8.6 6h7.8c0.552 0 0.6-0.447 0.6-1s-0.048-1-0.6-1h-7.8c-0.552 0-0.6 0.447-0.6 1s0.048 1 0.6 1zM5.4 9h-1.8c-0.552 0-0.6 0.447-0.6 1s0.048 1 0.6 1h1.8c0.552 0 0.6-0.447 0.6-1s-0.048-1-0.6-1zM5.4 14h-1.8c-0.552 0-0.6 0.447-0.6 1s0.048 1 0.6 1h1.8c0.552 0 0.6-0.447 0.6-1s-0.048-1-0.6-1zM5.4 4h-1.8c-0.552 0-0.6 0.447-0.6 1s0.048 1 0.6 1h1.8c0.552 0 0.6-0.447 0.6-1s-0.048-1-0.6-1z"></path>
</symbol>
<symbol id="icon-location-pin" viewBox="0 0 20 20">
<title>location-pin</title>
<path d="M10 2.009c-2.762 0-5 2.229-5 4.99 0 4.774 5 11 5 11s5-6.227 5-11c0-2.76-2.238-4.99-5-4.99zM10 9.76c-1.492 0-2.7-1.209-2.7-2.7s1.208-2.7 2.7-2.7c1.49 0 2.699 1.209 2.699 2.7s-1.209 2.7-2.699 2.7z"></path>
</symbol>
<symbol id="icon-location" viewBox="0 0 20 20">
<title>location</title>
<path d="M19.367 18.102l-1.367-4.102h-1.5l0.833 4h-14.666l0.833-4h-1.5l-1.368 4.102c-0.347 1.044 0.268 1.898 1.368 1.898h16c1.1 0 1.715-0.854 1.367-1.898zM15 5c0-2.761-2.238-5-5-5s-5 2.239-5 5c0 4.775 5 10 5 10s5-5.225 5-10zM7.3 5.060c0-1.491 1.208-2.699 2.7-2.699s2.7 1.208 2.7 2.699c0 1.492-1.209 2.7-2.7 2.7s-2.7-1.209-2.7-2.7z"></path>
</symbol>
<symbol id="icon-lock-open" viewBox="0 0 20 20">
<title>lock-open</title>
<path d="M15.8 8h-1.8v-2.4c0-2.897-1.335-4.6-4-4.6s-4 1.703-4 4.6v0.4h2v-0.801c0-1.445 0.797-2.199 2-2.199s2 0.754 2 2.199v2.801h-8c-0.553 0-1 0.646-1 1.199v7.801c0 0.549 0.428 1.139 0.951 1.307l1.197 0.387c0.524 0.167 1.402 0.306 1.952 0.306h5.8c0.549 0 1.428-0.139 1.951-0.307l1.196-0.387c0.524-0.167 0.953-0.757 0.953-1.306v-7.801c0-0.553-0.648-1.199-1.2-1.199z"></path>
</symbol>
<symbol id="icon-lock" viewBox="0 0 20 20">
<title>lock</title>
<path d="M15.8 8h-1.8v-2.4c0-2.897-1.335-4.6-4-4.6s-4 1.703-4 4.6v2.4h-2c-0.553 0-1 0.646-1 1.199v7.801c0 0.549 0.428 1.139 0.951 1.307l1.197 0.387c0.524 0.167 1.402 0.306 1.952 0.306h5.8c0.549 0 1.428-0.139 1.951-0.307l1.196-0.387c0.524-0.167 0.953-0.757 0.953-1.306v-7.801c0-0.553-0.648-1.199-1.2-1.199zM12 8h-4v-2.801c0-1.445 0.797-2.199 2-2.199s2 0.754 2 2.199v2.801z"></path>
</symbol>
<symbol id="icon-magnifying-glass" viewBox="0 0 20 20">
<title>magnifying-glass</title>
<path d="M17.545 15.467l-3.779-3.779c0.57-0.935 0.898-2.035 0.898-3.21 0-3.417-2.961-6.377-6.378-6.377s-6.186 2.769-6.186 6.186c0 3.416 2.961 6.377 6.377 6.377 1.137 0 2.2-0.309 3.115-0.844l3.799 3.801c0.372 0.371 0.975 0.371 1.346 0l0.943-0.943c0.371-0.371 0.236-0.84-0.135-1.211zM4.004 8.287c0-2.366 1.917-4.283 4.282-4.283s4.474 2.107 4.474 4.474c0 2.365-1.918 4.283-4.283 4.283s-4.473-2.109-4.473-4.474z"></path>
</symbol>
<symbol id="icon-mail" viewBox="0 0 20 20">
<title>mail</title>
<path d="M1.574 5.286c0.488 0.262 7.248 3.894 7.5 4.029s0.578 0.199 0.906 0.199c0.328 0 0.654-0.064 0.906-0.199s7.012-3.767 7.5-4.029c0.489-0.263 0.951-1.286 0.054-1.286h-16.919c-0.897 0-0.435 1.023 0.053 1.286zM18.613 7.489c-0.555 0.289-7.387 3.849-7.727 4.027s-0.578 0.199-0.906 0.199-0.566-0.021-0.906-0.199-7.133-3.739-7.688-4.028c-0.39-0.204-0.386 0.035-0.386 0.219s0 7.293 0 7.293c0 0.42 0.566 1 1 1h16c0.434 0 1-0.58 1-1 0 0 0-7.108 0-7.292s0.004-0.423-0.387-0.219z"></path>
</symbol>
<symbol id="icon-map" viewBox="0 0 20 20">
<title>map</title>
<path d="M19.447 3.718l-6-3c-0.281-0.141-0.613-0.141-0.895 0l-5.63 2.815-5.606-1.869c-0.306-0.102-0.64-0.051-0.901 0.138s-0.415 0.49-0.415 0.811v13.001c0 0.379 0.214 0.725 0.553 0.894l6 3c0.141 0.070 0.294 0.106 0.447 0.106s0.307-0.035 0.447-0.106l5.63-2.814 5.606 1.869c0.305 0.1 0.64 0.049 0.901-0.139s0.415-0.49 0.415-0.81v-13.002c0.001-0.379-0.213-0.725-0.552-0.894zM8 5.231l4-2v11.763l-4 2v-11.763zM2 4l4 1.333v11.661l-4-2v-10.994zM18 16.227l-4-1.334v-11.662l4 2v10.996z"></path>
</symbol>
<symbol id="icon-new-message" viewBox="0 0 20 20">
<title>new-message</title>
<path d="M18.174 1.826c-1.102-1.102-2.082-0.777-2.082-0.777l-8.639 8.632-1.453 4.319 4.317-1.454 8.634-8.638c0 0 0.324-0.98-0.777-2.082zM10.605 11.605l-0.471 0.47-1.473 0.5c-0.104-0.24-0.234-0.477-0.498-0.74s-0.5-0.394-0.74-0.498l0.5-1.473 0.471-0.47c0 0 0.776-0.089 1.537 0.673 0.762 0.761 0.674 1.538 0.674 1.538zM16 17h-13v-13h5l2-2h-7c-1.1 0-2 0.9-2 2v13c0 1.1 0.9 2 2 2h13c1.1 0 2-0.9 2-2v-7l-2 2v5z"></path>
</symbol>
<symbol id="icon-paper-plane" viewBox="0 0 20 20">
<title>paper-plane</title>
<path d="M18.64 2.634c-0.344 0.121-17.321 6.104-17.656 6.222-0.284 0.1-0.347 0.345-0.010 0.479 0.401 0.161 3.796 1.521 3.796 1.521v0l2.25 0.901c0 0 10.838-7.958 10.984-8.066 0.148-0.108 0.318 0.095 0.211 0.211s-7.871 8.513-7.871 8.513v0.002l-0.452 0.503 0.599 0.322c0 0 4.65 2.504 4.982 2.682 0.291 0.156 0.668 0.027 0.752-0.334 0.099-0.426 2.845-12.261 2.906-12.525 0.079-0.343-0.148-0.552-0.491-0.431zM7 17.162c0 0.246 0.139 0.315 0.331 0.141 0.251-0.229 2.85-2.561 2.85-2.561l-3.181-1.644v4.064z"></path>
</symbol>
<symbol id="icon-pencil" viewBox="0 0 20 20">
<title>pencil</title>
<path d="M14.69 2.661c-1.894-1.379-3.242-1.349-3.754-1.266-0.144 0.023-0.265 0.106-0.35 0.223l-6.883 9.497c-0.277 0.382-0.437 0.836-0.462 1.307l-0.296 5.624c-0.021 0.405 0.382 0.698 0.76 0.553l5.256-2.010c0.443-0.17 0.828-0.465 1.106-0.849l6.88-9.494c0.089-0.123 0.125-0.273 0.1-0.423-0.084-0.526-0.487-1.802-2.357-3.162zM8.977 15.465l-2.043 0.789c-0.080 0.031-0.169 0.006-0.221-0.062-0.263-0.335-0.576-0.667-1.075-1.030-0.499-0.362-0.911-0.558-1.31-0.706-0.080-0.030-0.131-0.106-0.126-0.192l0.122-2.186 0.549-0.755c0 0 1.229-0.169 2.833 0.998 1.602 1.166 1.821 2.388 1.821 2.388l-0.55 0.756z"></path>
</symbol>
<symbol id="icon-phone" viewBox="0 0 20 20">
<title>phone</title>
<path d="M11.229 11.229c-1.583 1.582-3.417 3.096-4.142 2.371-1.037-1.037-1.677-1.941-3.965-0.102-2.287 1.838-0.53 3.064 0.475 4.068 1.16 1.16 5.484 0.062 9.758-4.211 4.273-4.274 5.368-8.598 4.207-9.758-1.005-1.006-2.225-2.762-4.063-0.475s-0.936 2.927 0.103 3.965c0.722 0.725-0.791 2.559-2.373 4.142z"></path>
</symbol>
<symbol id="icon-pin" viewBox="0 0 20 20">
<title>pin</title>
<path d="M4.774 15.287l-2.105 3.25 0.224 1.063 1.060-0.227 2.104-3.248c-0.224-0.12-0.446-0.248-0.661-0.39-0.218-0.141-0.426-0.292-0.622-0.448zM13.686 14.152c0.014-0.029 0.023-0.061 0.036-0.092 0.053-0.117 0.1-0.234 0.138-0.357 0.006-0.022 0.009-0.044 0.016-0.064 0.039-0.136 0.072-0.27 0.098-0.408 0-0.007 0-0.012 0-0.021 0.195-1.169-0.145-2.473-0.923-3.651l1.11-1.714c1.279 0.163 2.385-0.159 2.917-0.982 0.923-1.423-0.2-3.792-2.505-5.293-2.307-1.502-4.923-1.565-5.844-0.144-0.534 0.824-0.378 1.967 0.293 3.073l-1.112 1.714c-1.389-0.233-2.716-0.016-3.703 0.64-0.006 0.002-0.013 0.004-0.017 0.008-0.115 0.078-0.227 0.164-0.332 0.254-0.017 0.014-0.037 0.027-0.051 0.041-0.098 0.084-0.186 0.178-0.271 0.272-0.020 0.024-0.048 0.045-0.067 0.070-0.106 0.121-0.204 0.249-0.29 0.385-1.384 2.133-0.203 5.361 2.633 7.209 2.838 1.848 6.26 1.614 7.641-0.519 0.087-0.135 0.167-0.276 0.233-0.421zM12.871 4.194c-0.887-0.577-1.32-1.487-0.965-2.036 0.354-0.547 1.361-0.522 2.246 0.055 0.889 0.577 1.318 1.489 0.965 2.036s-1.358 0.522-2.246-0.055z"></path>
</symbol>
<symbol id="icon-plus" viewBox="0 0 20 20">
<title>plus</title>
<path d="M16 10c0 0.553-0.048 1-0.601 1h-4.399v4.399c0 0.552-0.447 0.601-1 0.601s-1-0.049-1-0.601v-4.399h-4.399c-0.552 0-0.601-0.447-0.601-1s0.049-1 0.601-1h4.399v-4.399c0-0.553 0.447-0.601 1-0.601s1 0.048 1 0.601v4.399h4.399c0.553 0 0.601 0.447 0.601 1z"></path>
</symbol>
<symbol id="icon-reply" viewBox="0 0 20 20">
<title>reply</title>
<path d="M19 16.685c0 0-2.225-9.732-11-9.732v-3.984l-7 6.573 7 6.69v-4.357c4.763-0.001 8.516 0.421 11 4.81z"></path>
</symbol>
<symbol id="icon-share-alternitive" viewBox="0 0 20 20">
<title>share-alternitive</title>
<path d="M9 13h2v-9h2l-3-4-3 4h2v9zM17 7h-3v2h2v9h-12v-9h2v-2h-3c-0.553 0-1 0.447-1 1v11c0 0.552 0.447 1 1 1h14c0.553 0 1-0.448 1-1v-11c0-0.552-0.447-1-1-1z"></path>
</symbol>
<symbol id="icon-share" viewBox="0 0 20 20">
<title>share</title>
<path d="M15 13.442c-0.633 0-1.204 0.246-1.637 0.642l-5.938-3.463c0.046-0.188 0.075-0.384 0.075-0.584s-0.029-0.395-0.075-0.583l5.875-3.429c0.446 0.417 1.042 0.675 1.7 0.675 1.379 0 2.5-1.121 2.5-2.5s-1.121-2.5-2.5-2.5-2.5 1.121-2.5 2.5c0 0.2 0.029 0.396 0.075 0.583l-5.875 3.429c-0.446-0.416-1.042-0.675-1.7-0.675-1.379 0-2.5 1.121-2.5 2.5s1.121 2.5 2.5 2.5c0.658 0 1.254-0.258 1.7-0.675l5.938 3.463c-0.042 0.175-0.067 0.358-0.067 0.546 0 1.342 1.087 2.429 2.429 2.429s2.429-1.088 2.429-2.429-1.087-2.429-2.429-2.429z"></path>
</symbol>
<symbol id="icon-shareable" viewBox="0 0 20 20">
<title>shareable</title>
<path d="M6.8 10c0 1.768 1.433 3.201 3.2 3.201 1.768 0 3.199-1.433 3.199-3.201s-1.431-3.2-3.199-3.2-3.2 1.433-3.2 3.2zM4.529 8.8c0.549-2.516 2.789-4.4 5.471-4.4 1.546 0 2.945 0.627 3.959 1.64 0.469 0.469 1.229 0.469 1.697 0 0.469-0.469 0.469-1.229 0-1.697-1.447-1.447-3.447-2.343-5.656-2.343-3.582 0-6.614 2.354-7.633 5.601h-2.367v2.399h3.199c0.999 0 1.245-0.813 1.33-1.2zM16.8 10c-0.999 0-1.245 0.814-1.329 1.199-0.549 2.516-2.789 4.4-5.471 4.4-1.547 0-2.946-0.627-3.959-1.641-0.469-0.469-1.229-0.469-1.698 0s-0.468 1.229 0 1.697c1.448 1.449 3.448 2.345 5.657 2.345 3.582 0 6.613-2.356 7.633-5.6h2.367v-2.4h-3.2z"></path>
</symbol>
<symbol id="icon-shopping-cart" viewBox="0 0 20 20">
<title>shopping-cart</title>
<path d="M13 17c0 1.104 0.894 2 2 2 1.104 0 2-0.896 2-2 0-1.106-0.896-2-2-2-1.106 0-2 0.894-2 2zM3 17c0 1.104 0.895 2 2 2 1.103 0 2-0.896 2-2 0-1.106-0.897-2-2-2-1.105 0-2 0.894-2 2zM6.547 12.172l11.068-3.162c0.211-0.061 0.385-0.289 0.385-0.51v-5.5h-14v-1.6c0-0.22-0.181-0.4-0.399-0.4h-3.202c-0.219 0-0.399 0.18-0.399 0.4v1.6h2l1.91 8.957 0.090 0.943v1.649c0 0.219 0.18 0.4 0.4 0.4h13.2c0.22 0 0.4-0.182 0.4-0.4v-1.549h-11.248c-1.15 0-1.174-0.551-0.205-0.828z"></path>
</symbol>
<symbol id="icon-star-outlined" viewBox="0 0 20 20">
<title>star-outlined</title>
<path d="M18.8 8.022h-6.413l-2.387-6.722-2.389 6.722h-6.412l5.232 3.947-1.871 6.929 5.44-4.154 5.438 4.154-1.869-6.929 5.231-3.947zM10 12.783l-3.014 2.5 1.243-3.562-2.851-2.3 3.522 0.101 1.1-4.040 1.099 4.040 3.521-0.101-2.851 2.3 1.243 3.562-3.012-2.5z"></path>
</symbol>
<symbol id="icon-star" viewBox="0 0 20 20">
<title>star</title>
<path d="M10 1.3l2.388 6.722h6.412l-5.232 3.948 1.871 6.928-5.439-4.154-5.438 4.154 1.87-6.928-5.233-3.948h6.412l2.389-6.722z"></path>
</symbol>
<symbol id="icon-stopwatch" viewBox="0 0 20 20">
<title>stopwatch</title>
<path d="M7.376 6.745c-0.447 0.275 1.197 4.242 1.598 4.888 0.35 0.569 1.093 0.742 1.658 0.394 0.568-0.352 0.745-1.094 0.395-1.66-0.397-0.648-3.205-3.898-3.651-3.622zM7.041 2.402c0.928-0.323 1.922-0.502 2.959-0.502s2.031 0.179 2.959 0.502c0.329 0.114 0.765-0.115 0.572-0.611-0.141-0.36-0.277-0.712-0.332-0.855-0.131-0.339-0.6-0.619-0.804-0.665-0.772-0.174-1.572-0.271-2.395-0.271s-1.623 0.097-2.396 0.271c-0.204 0.046-0.672 0.326-0.803 0.665-0.055 0.143-0.192 0.495-0.332 0.855-0.193 0.496 0.243 0.726 0.572 0.611zM19.098 3.186c-0.192-0.23-0.396-0.455-0.613-0.672-0.216-0.217-0.441-0.42-0.67-0.613-0.153-0.129-0.603-0.234-0.888 0.051s-1.648 1.647-1.648 1.647c0.402 0.288 0.793 0.605 1.155 0.966s0.677 0.752 0.966 1.155c0 0 1.363-1.362 1.647-1.647 0.286-0.286 0.181-0.735 0.051-0.887zM10 2.9c-4.475 0-8.101 3.626-8.101 8.1s3.626 8.101 8.101 8.101c4.473 0 8.1-3.626 8.1-8.101 0-4.473-3.627-8.1-8.1-8.1zM10 17.101c-3.368 0-6.1-2.731-6.1-6.1s2.731-6.1 6.1-6.1c3.369 0 6.101 2.731 6.101 6.1s-2.732 6.1-6.101 6.1z"></path>
</symbol>
<symbol id="icon-trophy" viewBox="0 0 20 20">
<title>trophy</title>
<path d="M11.18 14.356c0-1.451 1.1-2.254 2.894-3.442 2.194-1.456 4.926-3.265 4.926-7.56 0-0.387-0.317-0.699-0.709-0.699h-3.43c-0.484-0.896-1.929-1.855-4.861-1.855-2.934 0-4.377 0.959-4.862 1.855h-3.431c-0.391 0-0.707 0.313-0.707 0.699 0 4.295 2.73 6.104 4.926 7.559 1.794 1.188 2.894 1.991 2.894 3.442v1.311c-1.884 0.209-3.269 0.906-3.269 1.736 0 0.994 1.992 1.799 4.449 1.799s4.449-0.805 4.449-1.799c0-0.83-1.385-1.527-3.269-1.736v-1.31zM13.957 9.3c0.566-1.199 1.016-2.826 1.088-5.246h2.51c-0.24 2.701-1.862 4.064-3.598 5.246zM10 2.026c2.732-0.002 3.799 1.115 3.798 1.529 0 0.418-1.066 1.533-3.798 1.535-2.732-0.001-3.799-1.116-3.799-1.534-0.001-0.414 1.067-1.532 3.799-1.53zM2.445 4.054h2.509c0.073 2.42 0.521 4.047 1.089 5.246-1.736-1.182-3.359-2.545-3.598-5.246z"></path>
</symbol>
<symbol id="icon-user" viewBox="0 0 20 20">
<title>user</title>
<path d="M7.725 2.146c-1.016 0.756-1.289 1.953-1.239 2.59 0.064 0.779 0.222 1.793 0.222 1.793s-0.313 0.17-0.313 0.854c0.109 1.717 0.683 0.976 0.801 1.729 0.284 1.814 0.933 1.491 0.933 2.481 0 1.649-0.68 2.42-2.803 3.334-2.13 0.918-4.326 2.073-4.326 4.073v1h18v-1c0-2-2.197-3.155-4.328-4.072-2.123-0.914-2.801-1.684-2.801-3.334 0-0.99 0.647-0.667 0.932-2.481 0.119-0.753 0.692-0.012 0.803-1.729 0-0.684-0.314-0.854-0.314-0.854s0.158-1.014 0.221-1.793c0.065-0.817-0.398-2.561-2.3-3.096-0.333-0.34-0.558-0.881 0.466-1.424-2.24-0.105-2.761 1.067-3.954 1.929z"></path>
</symbol>
<symbol id="icon-users" viewBox="0 0 20 20">
<title>users</title>
<path d="M15.989 19.129c0-2.246-2.187-3.389-4.317-4.307-2.123-0.914-2.801-1.684-2.801-3.334 0-0.989 0.648-0.667 0.932-2.481 0.12-0.752 0.692-0.012 0.802-1.729 0-0.684-0.313-0.854-0.313-0.854s0.159-1.013 0.221-1.793c0.064-0.817-0.398-2.56-2.301-3.095-0.332-0.341-0.557-0.882 0.467-1.424-2.24-0.104-2.761 1.068-3.954 1.93-1.015 0.756-1.289 1.953-1.24 2.59 0.065 0.78 0.223 1.793 0.223 1.793s-0.314 0.17-0.314 0.854c0.11 1.718 0.684 0.977 0.803 1.729 0.284 1.814 0.933 1.492 0.933 2.481 0 1.65-0.212 2.21-2.336 3.124-2.131 0.917-2.794 2.387-2.783 4.516 0.003 0.637-0.011 0.871-0.011 0.871h16c0 0-0.011-0.234-0.011-0.871zM18.528 13.365c-1.135-0.457-1.605-1.002-1.605-2.066 0-0.641 0.418-0.432 0.602-1.603 0.077-0.484 0.447-0.008 0.518-1.115 0-0.441-0.202-0.551-0.202-0.551s0.103-0.656 0.143-1.159c0.050-0.627-0.364-2.247-2.268-2.247s-2.318 1.62-2.269 2.247c0.042 0.502 0.144 1.159 0.144 1.159s-0.202 0.109-0.202 0.551c0.071 1.107 0.441 0.631 0.518 1.115 0.184 1.172 0.602 0.963 0.602 1.603 0 1.064-0.438 1.562-1.809 2.152-0.069 0.029-0.12 0.068-0.183 0.102 1.64 0.712 4.226 1.941 4.838 4.447h2.645c0 0 0-1.906 0-2.318 0-1-0.273-1.834-1.472-2.317z"></path>
</symbol>
<symbol id="icon-wallet" viewBox="0 0 20 20">
<title>wallet</title>
<path d="M16 6h-12.5v-0.5l11-0.88v0.88h1.5v-1.5c0-1.1-0.891-1.872-1.979-1.717l-10.041 1.434c-1.089 0.156-1.98 1.183-1.98 2.283v10c0 1.104 0.895 2 2 2h12c1.104 0 2-0.896 2-2v-8c0-1.104-0.896-2-2-2zM14.5 13.006c-0.828 0-1.5-0.672-1.5-1.5s0.672-1.5 1.5-1.5 1.5 0.672 1.5 1.5-0.672 1.5-1.5 1.5z"></path>
</symbol>
<symbol id="icon-file-empty" viewBox="0 0 32 32">
<title>file-empty</title>
<path d="M28.681 7.159c-0.694-0.947-1.662-2.053-2.724-3.116s-2.169-2.030-3.116-2.724c-1.612-1.182-2.393-1.319-2.841-1.319h-15.5c-1.378 0-2.5 1.121-2.5 2.5v27c0 1.378 1.122 2.5 2.5 2.5h23c1.378 0 2.5-1.122 2.5-2.5v-19.5c0-0.448-0.137-1.23-1.319-2.841zM24.543 5.457c0.959 0.959 1.712 1.825 2.268 2.543h-4.811v-4.811c0.718 0.556 1.584 1.309 2.543 2.268zM28 29.5c0 0.271-0.229 0.5-0.5 0.5h-23c-0.271 0-0.5-0.229-0.5-0.5v-27c0-0.271 0.229-0.5 0.5-0.5 0 0 15.499-0 15.5 0v7c0 0.552 0.448 1 1 1h7v19.5z"></path>
</symbol>
<symbol id="icon-file-picture" viewBox="0 0 32 32">
<title>file-picture</title>
<path d="M26 28h-20v-4l6-10 8.219 10 5.781-4v8z"></path>
<path d="M26 15c0 1.657-1.343 3-3 3s-3-1.343-3-3 1.343-3 3-3c1.657 0 3 1.343 3 3z"></path>
<path d="M28.681 7.159c-0.694-0.947-1.662-2.053-2.724-3.116s-2.169-2.030-3.116-2.724c-1.612-1.182-2.393-1.319-2.841-1.319h-15.5c-1.378 0-2.5 1.121-2.5 2.5v27c0 1.378 1.122 2.5 2.5 2.5h23c1.378 0 2.5-1.122 2.5-2.5v-19.5c0-0.448-0.137-1.23-1.319-2.841zM24.543 5.457c0.959 0.959 1.712 1.825 2.268 2.543h-4.811v-4.811c0.718 0.556 1.584 1.309 2.543 2.268zM28 29.5c0 0.271-0.229 0.5-0.5 0.5h-23c-0.271 0-0.5-0.229-0.5-0.5v-27c0-0.271 0.229-0.5 0.5-0.5 0 0 15.499-0 15.5 0v7c0 0.552 0.448 1 1 1h7v19.5z"></path>
</symbol>
<symbol id="icon-file-music" viewBox="0 0 32 32">
<title>file-music</title>
<path d="M28.681 7.159c-0.694-0.947-1.662-2.053-2.724-3.116s-2.169-2.030-3.116-2.724c-1.612-1.182-2.393-1.319-2.841-1.319h-15.5c-1.378 0-2.5 1.121-2.5 2.5v27c0 1.378 1.121 2.5 2.5 2.5h23c1.378 0 2.5-1.122 2.5-2.5v-19.5c0-0.448-0.137-1.23-1.319-2.841v0zM24.543 5.457c0.959 0.959 1.712 1.825 2.268 2.543h-4.811v-4.811c0.718 0.556 1.584 1.309 2.543 2.268v0zM28 29.5c0 0.271-0.229 0.5-0.5 0.5h-23c-0.271 0-0.5-0.229-0.5-0.5v-27c0-0.271 0.229-0.5 0.5-0.5 0 0 15.499-0 15.5 0v7c0 0.552 0.448 1 1 1h7v19.5z"></path>
<path d="M23.634 12.227c-0.232-0.19-0.536-0.266-0.83-0.207l-10 2c-0.467 0.094-0.804 0.504-0.804 0.981v7.402c-0.588-0.255-1.271-0.402-2-0.402-2.209 0-4 1.343-4 3s1.791 3 4 3 4-1.343 4-3v-7.18l8-1.6v4.183c-0.588-0.255-1.271-0.402-2-0.402-2.209 0-4 1.343-4 3s1.791 3 4 3 4-1.343 4-3v-10c0-0.3-0.134-0.583-0.366-0.773z"></path>
</symbol>
<symbol id="icon-file-play" viewBox="0 0 32 32">
<title>file-play</title>
<path d="M12 12l10 7-10 7v-14z"></path>
<path d="M28.681 7.159c-0.694-0.947-1.662-2.053-2.724-3.116s-2.169-2.030-3.116-2.724c-1.612-1.182-2.393-1.319-2.841-1.319h-15.5c-1.378 0-2.5 1.121-2.5 2.5v27c0 1.378 1.122 2.5 2.5 2.5h23c1.378 0 2.5-1.122 2.5-2.5v-19.5c0-0.448-0.137-1.23-1.319-2.841zM24.543 5.457c0.959 0.959 1.712 1.825 2.268 2.543h-4.811v-4.811c0.718 0.556 1.584 1.309 2.543 2.268zM28 29.5c0 0.271-0.229 0.5-0.5 0.5h-23c-0.271 0-0.5-0.229-0.5-0.5v-27c0-0.271 0.229-0.5 0.5-0.5 0 0 15.499-0 15.5 0v7c0 0.552 0.448 1 1 1h7v19.5z"></path>
</symbol>
<symbol id="icon-file-video" viewBox="0 0 32 32">
<title>file-video</title>
<path d="M28.681 7.159c-0.694-0.947-1.662-2.053-2.724-3.116s-2.169-2.030-3.116-2.724c-1.612-1.182-2.394-1.319-2.841-1.319h-15.5c-1.378 0-2.5 1.121-2.5 2.5v27c0 1.378 1.121 2.5 2.5 2.5h23c1.378 0 2.5-1.122 2.5-2.5v-19.5c0-0.448-0.137-1.23-1.319-2.841v0 0zM24.543 5.457c0.959 0.959 1.712 1.825 2.268 2.543h-4.811v-4.811c0.718 0.556 1.584 1.309 2.543 2.268v0 0zM28 29.5c0 0.271-0.229 0.5-0.5 0.5h-23c-0.271 0-0.5-0.229-0.5-0.5v-27c0-0.271 0.229-0.5 0.5-0.5 0 0 15.499-0 15.5 0v7c0 0.552 0.448 1 1 1h7v19.5z"></path>
<path d="M8 16h10v10h-10v-10z"></path>
<path d="M18 20l6-4v10l-6-4z"></path>
</symbol>
<symbol id="icon-user-plus" viewBox="0 0 32 32">
<title>user-plus</title>
<path d="M12 23c0-4.726 2.996-8.765 7.189-10.319 0.509-1.142 0.811-2.411 0.811-3.681 0-4.971 0-9-6-9s-6 4.029-6 9c0 3.096 1.797 6.191 4 7.432v1.649c-6.784 0.555-12 3.888-12 7.918h12.416c-0.271-0.954-0.416-1.96-0.416-3z"></path>
<path d="M23 14c-4.971 0-9 4.029-9 9s4.029 9 9 9c4.971 0 9-4.029 9-9s-4.029-9-9-9zM28 24h-4v4h-2v-4h-4v-2h4v-4h2v4h4v2z"></path>
</symbol>
<symbol id="icon-user-minus" viewBox="0 0 32 32">
<title>user-minus</title>
<path d="M12 23c0-4.726 2.996-8.765 7.189-10.319 0.509-1.142 0.811-2.411 0.811-3.681 0-4.971 0-9-6-9s-6 4.029-6 9c0 3.096 1.797 6.191 4 7.432v1.649c-6.784 0.555-12 3.888-12 7.918h12.416c-0.271-0.954-0.416-1.96-0.416-3z"></path>
<path d="M23 14c-4.971 0-9 4.029-9 9s4.029 9 9 9c4.971 0 9-4.029 9-9s-4.029-9-9-9zM28 24h-10v-2h10v2z"></path>
</symbol>
<symbol id="icon-user-check" viewBox="0 0 32 32">
<title>user-check</title>
<path d="M30 19l-9 9-3-3-2 2 5 5 11-11z"></path>
<path d="M14 24h10v-3.598c-2.101-1.225-4.885-2.066-8-2.321v-1.649c2.203-1.242 4-4.337 4-7.432 0-4.971 0-9-6-9s-6 4.029-6 9c0 3.096 1.797 6.191 4 7.432v1.649c-6.784 0.555-12 3.888-12 7.918h14v-2z"></path>
</symbol>
</defs>
</svg>
